<svg width="29" height="28" viewBox="0 0 29 28" fill="none" xmlns="http://www.w3.org/2000/svg">
<rect x="1" y="0.5" width="27" height="27" rx="13.5" stroke="#6A0BFF"/>
<path fill-rule="evenodd" clip-rule="evenodd" d="M13.2753 8.55806C13.5194 8.80214 13.5194 9.19786 13.2753 9.44194L9.34223 13.375H21.1667C21.5119 13.375 21.7917 13.6548 21.7917 14C21.7917 14.3452 21.5119 14.625 21.1667 14.625H9.34223L13.2753 18.5581C13.5194 18.8021 13.5194 19.1979 13.2753 19.4419C13.0312 19.686 12.6355 19.686 12.3914 19.4419L7.3914 14.4419C7.14732 14.1979 7.14732 13.8021 7.3914 13.5581L12.3914 8.55806C12.6355 8.31398 13.0312 8.31398 13.2753 8.55806Z" fill="#6A0BFF"/>
</svg>
